<svg xmlns="http://www.w3.org/2000/svg" viewBox="0 0 32 32" fill="none">
  <circle cx="16" cy="16" r="16" fill="#1e7a8d"/>
  <path d="M8 20l-1.5-.75A.5.5 0 016 18.81V11.31a.5.5 0 01.724-.447L10 12.5m0 0l3 1.5m-3-1.5V20m3-7l3-1.5m-3 1.5V20m3-8.5l3.276 1.638A.5.5 0 0120 13.581V21.08a.5.5 0 01-.724.447L16 19.89M10 20l3-1.5m0 0l3 1.39" stroke="white" stroke-width="1.5" stroke-linecap="round" stroke-linejoin="round"/>
  <circle cx="21" cy="10" r="3" fill="#f97066" stroke="white" stroke-width="1"/>
</svg>
