<svg xmlns="http://www.w3.org/2000/svg" viewBox="0 0 442.15 442.02">
  <g>
    <path d="M94.63,41.53l8.9,13.26-30.51,24.81c-5.4,4.39-6.85,10.92-2.17,16.57l19.92,24.06c-3.76,3.49-6.64,7.12-9.32,11.65l-31.01,52.6c-2.21,3.75-4.31,7.1-7.23,10.49l-39.98-6.44c3.96-33.68,17.77-67.03,37.51-94.98,14.47-20.48,31.68-37.58,52.09-51.95.78-.55,1.4-.09,1.79-.08Z" fill="#3e9096"/>
    <path d="M416.03,322.1c.27.05,1.27.93,1.06,1.33-7.12,13.97-15.87,26.66-25.86,38.56-.8-.1-1.54-.46-1.77-.45-4.43-5.62-12.67-11.1-19.53-4.58l-26.29,24.98c-3.54,3.36-2.31,9.38.17,12.75l4.25,5.77c-6.87,7.12-17.18,13.51-26.74,16.18l-25.65-42.55c12.73-9.79,3.33-21.7,5.86-28.6,1.49-4.05,6.07-7.88,10.17-8.97,5.44-1.44,11.78,8.13,21.14,5.08,10.07-3.28,19.51-7.43,29.21-11.22,3.52-1.88,5.9-4.5,7.35-8.07l7.44-18.43,39.19,18.22Z" fill="#3e9096"/>
    <path d="M320.73,26.49c-4.09,6.5-7.31,19.4-12.77,17.34l-40.66-15.37c-2.26-.85-3.37.13-3.88,1.55-.65,1.83.52,2.99,2.09,3.59l40.01,15.37c5.2,2,10.83-1.03,12.93-5.85,2.33-5.37,5.12-9.95,6.77-15.06.46-.04.84-.9,1.61-.81,8.6,4.51,16.28,9.62,24.03,15.03.86.6.78,1.56.9,2.16l-22.84,35.77c-27.38-9.56-57.34-24.03-86.59-23.49l4.67-7.74c3.06-5.07,3.74-10.88,1.99-16.65-4.11-13.56-1.7-16.68,0-29.36,1.15-.64,2.11-.69,3.94-.42,23.77,3.51,46.42,10.27,67.69,21.49.97.51.4,1.96.09,2.46Z" fill="#3d8f94"/>
    <path d="M61.35,372.02c-.09-.05-.36-.08-1.03.17-3.87-4.89-9.16-8.53-11.26-13.99l44.62-40.99c5.28,5.73,11.59,9.56,19.05,11.29l20.45,3.89,36.17,7.09-14.31,41.98c-2.92,8.58-8.42,15.71-12.77,23.98l-23.18-13.66c-2.28-1.34-2.99-4-1.59-6.12,1.1-2.7,2.81-5.2,3.48-8.35,1.01-4.72-1.51-8.52-5.12-11.09l-24.15-17.17c-3.98-2.83-9.46-2.18-12.62,1.43-6.3,7.2-12.31,14.14-17.75,21.52Z" fill="#3e9096"/>
    <path d="M241.82,2.11l-1.86,10.69c-3.02,17.33,6.1,22.49.93,31.85-2.56,4.64-5.27,8.97-8.42,13.09l-28.5,6.42-4.73-10.59c-2.39-5.35-8.24-6.59-13.48-4.62l-33.92,12.72c-2.87,1.08-5.47.06-6.51-2.65l-6.21-16.1c-1.09-2.84.41-5.62,3.07-6.5l34.46-11.39c5.81-1.92,9.5-6.86,8.02-12.74l-1.96-7.76c18.45-5.36,40.07-5.68,59.09-2.42Z" fill="#3d8f95"/>
    <path d="M436.33,264.78c.99.19,1,1.11.77,2.32-3.32,17.04-8.72,33.18-16.21,48.62-.46.05-1.06.17-1.28.25l-12.24-6.24,8.68-23.66c2.33-6.36-.1-12.14-6.27-14.71l-23.41-9.74c-5.27-2.19-11.79-1.01-13.99,4.54l-9.12,22.97-12.75-6.18c2.81-16.41,13.35-30.23,11.27-46.11l-2.66-20.3c-.81-6.28,2.65-11.21,8.39-13.58,8.15-3.36,16.35-5.71,25.2-8.73l15.68,53.85c4.08,14.01,15.75,12.87,27.94,16.7Z" fill="#3d9096"/>
    <path d="M45.32,352.33c-1.03.45-1.9.11-2.78-1.11-15.58-21.59-27-45.54-34.13-71.26-.34-1.23,0-2.05.75-2.35,13.73-6.26,13.51,11.88,25.39,12.69,3.74.25,7.33-1.71,9.68-4.82l12.85-16.96c1.83-4.34,13.39-7.91,15.5-2.38l17.02,44.58-44.07,40.85c-.36.33-.41.5-.22.77Z" fill="#3e9096"/>
    <path d="M315.39,420.28c-19.31,10.58-41.55,16.27-63.39,19.49-3.21-11.56-11.2-18.33-21.11-25.61.35-7.47,1-14,7.64-18.82l22.75-16.52c1.64-1.47,3.16-2.94,3.46-5.7,5.48-2.23,10.13-5.12,15.67-8.9l35,56.06Z" fill="#3f9096"/>
    <path d="M8.53,272.36c-2.95,4.44-5.62-19.64-5.81-18.88l.58-2.37,43.07-47.54,19.71,3.96c-2.05,7.12-5.12,13.36-7.65,20.28-5.68,15.55,14.29,15.78,15.07,31.24-8.37-2.79-16.08-.75-21.05,6.02l-12.4,16.91c-1.21,1.65-3.03,2.72-4.8,2.71-7.89-.01-10.68-19.83-26.72-12.33Z" fill="#3e9096"/>
    <path d="M436.16,173.48l-40.19,11.56-8.29-24.91c-2.99-8.98-6.69-17.16-11.09-25.73,7.1-19.98,13.15-22.02,28.67-32.72.28.17,1.04-.13,1.7.03,13.88,21.28,23.77,44.58,29.3,69.46.24,1.09.04,1.68-.1,2.31Z" fill="#3e9095"/>
    <path d="M177.52,5.21c.28,3.89,5.33,12.02-1.58,14.29l-34.84,11.41c-5.2,1.7-8.89,6.58-7.3,12.25,1.69,6.03,4.3,11.88,6.62,17.88s8.12,7.66,13.71,5.58l33.81-12.57c1.86-.69,3.46-.67,4.92.24,1.14.71,2.14,1.95,2.55,3.76,1.26,2.48,2.35,4.78,2.78,7.66-20.6,6.08-39.9,14.46-59.59,24.91l-38.32-52.73c-.11-.82.27-1.62,1.27-2.25,10.88-6.81,21.68-12.87,33.49-17.87,13.8-5.83,27.93-11.04,42.47-12.55Z" fill="#3d8f95"/>
    <path d="M244.79,439.94c-34.56,5.69-71.34-.79-104.5-13.34-.76-.29-.77-1.65-.68-1.8l21.51-37.62,49.98,36.22c5.48,3.97,12.81,2.73,16.97-2.46,5.96,3.55,15.97,12.59,16.72,18.99Z" fill="#3e8f95"/>
    <path d="M402.42,97.41c-6.73,3.09-12.84,7.82-18.66,13.08-5.07,4.59-7.64,10.45-10.89,16.79-10.85-17.4-20.15-33.04-37.1-43.98l21.15-34.41c.52-.05.48-.49.74-.56.32-.08,1.04-.03,1.48.32,16.81,13.51,31.66,29.12,43.92,47.05.49.71-.16,1.54-.64,1.71Z" fill="#3d9096"/>
    <path d="M437.56,180.83c5.79,25.08,6.38,53.69.19,78.65l-15.19-4.31c-3.71-1.05-6.91-3.12-8.08-7.1l-16.3-55.43,39.38-11.81Z" fill="#3e8f95"/>
    <path d="M133.04,422.53c-.88.15-1.92,0-3.3-.65-24.43-11.34-47.64-26.4-65.27-46.23,4.4-3.18,17.09-22.53,21.36-22.9,1.68-.14,2.89.71,4.26,1.7l22.74,16.43c7.86,5.68-2.66,10.86-1.27,18.74.57,3.24,2.68,5.98,5.77,7.77l22.21,12.79-6.49,12.34Z" fill="#3f9096"/>
    <path d="M2.38,241.54c-3.71-14.31-2.63-30.9.13-45.63l34.9,6.11L2.38,241.54Z" fill="#3d8f94"/>
    <path d="M386.54,365.16c.15.64.61,1.62-.05,2.36-9.71,10.96-20.39,20.65-31.95,29.59-.88.68-1.7.87-2.56.58-1.18-3.9-8.47-8.89-2.72-13.95,8.2-7.21,15.97-14.52,23.75-22.16,5.81-5.7,9.84,2.53,13.53,3.58Z" fill="#409098"/>
    <path d="M389.46,361.53c-1.18,1.02-1.39,3.08-2.92,3.63-3.7-1.05-7.73-9.28-13.53-3.58-7.78,7.64-15.55,14.94-23.75,22.16-5.74,5.05,1.55,10.05,2.72,13.95-.66,1.71-2.78,1.61-3.91,2.78l-4.25-5.77c-2.48-3.37-3.71-9.39-.17-12.75l26.29-24.98c6.86-6.52,15.09-1.05,19.53,4.58Z" fill="#feffff"/>
    <path d="M325.24,28.06c-1.65,5.1-4.44,9.68-6.77,15.06-2.09,4.83-7.73,7.85-12.93,5.85l-40.01-15.37c-1.57-.6-2.75-1.76-2.09-3.59.5-1.41,1.62-2.4,3.88-1.55l40.66,15.37c5.46,2.06,8.67-10.84,12.77-17.34,1.11,1.32,2.84,1.71,4.5,1.57Z" fill="#feffff"/>
    <g>
      <path d="M249.01,2.96c-1.71,12.69-4.12,15.8,0,29.36,1.75,5.77,1.07,11.58-1.99,16.65l-4.67,7.74c29.26-.54,59.21,13.93,86.59,23.49l22.84-35.77c.97,1.32,5.49,4.07,5.15,4.45l-21.15,34.41c16.95,10.93,26.25,26.58,37.1,43.98,3.25-6.34,5.82-12.2,10.89-16.79,5.82-5.26,11.93-9.99,18.66-13.08.98,1.52,1.23,3.32,2.85,4.27-15.52,10.7-21.57,12.74-28.67,32.72,4.4,8.56,8.1,16.75,11.09,25.73l8.29,24.91,40.19-11.56c-.6,2.62.83,4.87,1.4,7.35l-39.38,11.81,16.3,55.43c1.17,3.98,4.37,6.05,8.08,7.1l15.19,4.31c-.44,1.76-.11,3.72-1.42,5.3-12.19-3.82-23.86-2.68-27.94-16.7l-15.68-53.85c-8.85,3.01-17.05,5.37-25.2,8.73-5.74,2.37-9.21,7.3-8.39,13.58l2.66,20.3c2.08,15.88-8.46,29.7-11.27,46.11l12.75,6.18,9.12-22.97c2.21-5.55,8.73-6.73,13.99-4.54l23.41,9.74c6.17,2.57,8.6,8.35,6.27,14.71l-8.68,23.66,12.24,6.24c-.54.18-1.1.3-1.31.72-.26.53.02,1.07-.28,1.64l-1.99,3.78-39.19-18.22-7.44,18.43c-1.44,3.57-3.83,6.19-7.35,8.07-9.69,3.79-19.14,7.94-29.21,11.22-9.36,3.05-15.7-6.52-21.14-5.08-4.09,1.08-8.68,4.91-10.17,8.97-2.53,6.91,6.87,18.82-5.86,28.6l25.65,42.55c-1.79,1.41-4.02,2.59-5.93,3.63l-35-56.06c-5.54,3.78-10.18,6.67-15.67,8.9-.29,2.76-1.82,4.24-3.46,5.7l-22.75,16.52c-6.64,4.82-7.29,11.35-7.64,18.82,9.91,7.28,17.91,14.05,21.11,25.61-2.44.36-4.94.94-7.21.17-.75-6.4-10.77-15.44-16.72-18.99-4.16,5.19-11.49,6.42-16.97,2.46l-49.98-36.22-21.51,37.62c-3.81.35-2.39-2.97-6.58-2.27l6.49-12.34-22.21-12.79c-3.1-1.78-5.2-4.53-5.77-7.77-1.39-7.89,9.13-13.06,1.27-18.74l-22.74-16.43c-1.37-.99-2.59-1.84-4.26-1.7-4.27.37-16.96,19.72-21.36,22.9-1.08-1.21-1.54-3.04-3.11-3.64,5.44-7.38,11.45-14.32,17.75-21.52,3.16-3.61,8.64-4.26,12.62-1.43l24.15,17.17c3.61,2.57,6.13,6.37,5.12,11.09-.67,3.15-2.38,5.65-3.48,8.35-1.41,2.12-.69,4.78,1.59,6.12l23.18,13.66c4.35-8.27,9.85-15.4,12.77-23.98l14.31-41.98-36.17-7.09-20.45-3.89c-7.46-1.73-13.76-5.56-19.05-11.29l-44.62,40.99c-1.46-1.44-3.59-3.39-3.74-5.87-.19-.27-.14-.44.22-.77l44.07-40.85-17.02-44.58c-2.11-5.53-13.68-1.96-15.5,2.38l-12.85,16.96c-2.36,3.11-5.94,5.08-9.68,4.82-11.88-.8-11.66-18.95-25.39-12.69-.79-1.68-.61-3.43-.62-5.25,16.04-7.49,18.84,12.32,26.72,12.33,1.77,0,3.59-1.06,4.8-2.71l12.4-16.91c4.96-6.77,12.67-8.81,21.05-6.02-.78-15.46-20.75-15.7-15.07-31.24,2.53-6.93,5.6-13.16,7.65-20.28l-19.71-3.96L3.3,251.1c-1.15-3-.13-6.54-.91-9.56l35.03-39.52-34.9-6.11c.41-2.2.45-5.05.72-7.37l39.98,6.44c2.91-3.39,5.01-6.74,7.23-10.49l31.01-52.6c2.67-4.53,5.56-8.16,9.32-11.65l-19.92-24.06c-4.68-5.65-3.22-12.19,2.17-16.57l30.51-24.81-8.9-13.26c1.62.03,5.57-4.31,5.66-3.65l38.32,52.73c19.69-10.45,39-18.83,59.59-24.91-.43-2.88-1.52-5.18-2.78-7.66-.41-1.81-1.41-3.05-2.55-3.76-1.46-.91-3.06-.93-4.92-.24l-33.81,12.57c-5.59,2.08-11.5.12-13.71-5.58-2.32-5.99-4.93-11.84-6.62-17.88-1.59-5.67,2.1-10.54,7.3-12.25l34.84-11.41c6.9-2.26,1.85-10.4,1.58-14.29,1.72-.18,3.56-.2,5.21-.68l1.96,7.76c1.48,5.88-2.21,10.82-8.02,12.74l-34.46,11.39c-2.66.88-4.17,3.66-3.07,6.5l6.21,16.1c1.05,2.71,3.64,3.73,6.51,2.65l33.92-12.72c5.25-1.97,11.1-.73,13.48,4.62l4.73,10.59,28.5-6.42c3.14-4.12,5.85-8.44,8.42-13.09,5.17-9.36-3.95-14.52-.93-31.85l1.86-10.69c2.31.4,4.84.75,7.19.85Z" fill="#feffff"/>
      <g>
        <path d="M260.02,372.09l-25.1,18.79c-13.31,9.96-7.18,23.9-13.27,27.95-2.06,1.37-5.05,1.42-7.38-.27l-51.04-36.92,11-34.1c.99-3.07,2.07-5.91,4.05-8.9,11.32-7.62,24.03-12.09,37.8-13.9l1.22,13.97c.38,4.37,4.06,7.3,8.46,7.18,14.07-.38,27.54-2.11,41.3-4.2,1.55,1.19,2.58,3.52,3.17,5.26-4.29,3.46-13.82,5.97-15.08,11.31-1.46,6.22,3.03,7.61,4.88,13.82Z" fill="#3e9196"/>
        <path d="M237.64,121.93c-.11,2.87-2.76,4.18-5.14,4.3l-31.65,1.61c-7.98.41-7.06-8.58-12.57-19-2.63-4.97-8.4-6.54-13.36-4.19l-18.76,9.81-12.88-17.65c30.21-16.63,51.53-23.32,85.32-30.59,13.49-2.91,26.13-2.37,39.45,1.16,19.54,5.18,38.1,11.96,56.67,19.51l-9.94,15.41-40.03-22.46c-3.51-1.7-7.24-1.59-10.37.48l-19.72,13.05c-3.95,2.61-6.19,6.07-6.36,10.72l-.66,17.82Z" fill="#3c9095"/>
        <path d="M303.4,334.56c-3.41,3.18-6.94,6.23-7.74,10.95-1.44,8.55,4.92,17.12-3.06,23.71-6.13-9.73-11.94-19.01-17.4-28.81-3.62-6.49-5.47-13.27-8.05-20.99l40.04-19.35c10.76-5.2,21.42-8.91,33.31-10.43,2.97-.09,5.64-.07,8.04,1.06l23.05,10.84-7.14,18.35c-1,2.57-2.73,4.31-5.28,5.39l-24.76,9.85c-4.68,1.86-8.81,1.15-12.89-1.69-6.01-4.18-12.66-3.97-18.11,1.13Z" fill="#3d9095"/>
        <path d="M369.69,193.69l-13.79-29.78c-1.47-3.18-3.96-5.53-6.78-6.31-3.64-1.01-6.58.04-10.08,1.82-1.81,1.01-6.02,3.11-7.72.43l-21.89-34.49,22.32-35.32c8.22,4.77,13.67,10.93,19.3,17.66,10.14,14.03,19.13,28.7,25.72,44.83,4.64,11.36,7.84,22.64,11.53,34.69-6.23,2.65-11.99,4.51-18.61,6.47Z" fill="#3c9095"/>
        <path d="M94.91,116.78l-19.99-23.89c-2.16-2.57-2.11-5.8.4-8.01l31.43-25.69,25.33,35.18-37.18,22.4Z" fill="#3c9095"/>
        <path d="M411.2,283.36l-9.04,23.93-33.81-15.85,8.92-22.84c1.19-3.05,5.11-3.11,7.6-1.41l23.37,9.58c2.36,1.18,4.16,3.43,2.97,6.59Z" fill="#3d9095"/>
        <path d="M173.84,332.44c-5.5-1.07-10.51-1.45-15.7-3.16,3.04-11.11-.41-10.12-4.62-14.48-2.56-2.65-1.47-9.87,2.2-11.16,19.62-6.89,13.79-8.11,32.8-3.81,3.3.75,4.2,3.53,4.17,6.42l-.18,16.33c-6.54,2.88-12.69,5.74-18.66,9.87Z" fill="#3d9096"/>
        <path d="M96.49,250.88c.12,3.43-2.19,5.32-5.03,6.14l-11.67,3.34c-1.52-16.6-15.87-21.68-16.51-26.66-.45-3.55,1.77-7.35,3.06-10.53l5.89-14.52,8.33,1.66-1.15,9.22c-.52,4.2,2.44,7.61,6.86,8.21l3.89.52c1.39.19,2.72-.2,4.18.87.92.67,1.48,2.12,1.55,4.01l.6,17.76Z" fill="#3c8f94"/>
        <path d="M264.81,336.44c-4.62.24-22.08,5.08-22.33,0l-.64-13.41,17.98-1.27,4.99,14.68Z" fill="#3a9096"/>
        <path d="M237.22,338.87c-2.01.94-13.42,3.04-14.24-.23-1.17-4.68-1.03-9.37-1.17-14.42l14.32-1.05,1.09,15.7Z" fill="#3f9297"/>
        <path d="M277.37,359.34c-3.79,2.14-8.45,6.32-12.59,7.5-2.29.02-5.73-5.46-4.11-7.31,3.26-3.72,8.45-4.77,12.26-7.65,2.12,2.69,2.81,3.71,4.44,7.46Z" fill="#42949a"/>
        <g>
          <path d="M99.05,311.93l31.86-29.56c1.45-1.35.58-3.66-.53-4.87-.91-.99-3.24-2.2-4.76-.77l-30.29,28.36-13.77-39.06c3.53-2.17,7.36-2.39,11.37-3.7,3.94-1.13,8.24-3.61,8.47-8.12.43-8.31.18-16.57-.69-24.83s-14.28-5.83-15.48-8.58c-.91-3.05.37-6.82,1.23-9.96,7.01.68,12.82,1.7,19.38,1.8,2.15.03,3.15-2.5,2.99-4.17-.16-1.75-1.5-3.39-3.82-3.39-8.14-.9-16.08-.94-23.98-2.56l-29.48-6.03,15.74-25.95,20.81-35.29c3.28-5.36,7.36-9.89,12.68-13.37,11.6-7.6,23.51-14.21,35.94-21.29l33.79,46.42c1.51,2.07,2.97,3.05,5.07,2.21,1.42-.56,3.91-2.91,2.47-4.89l-18.42-25.27,17.61-9.34c2.67-1.42,5.74-.79,6.86,2.21l5.23,14.03c1.85,4.96,6.33,7.61,11.54,7.35l32.98-1.63c16.29-.8,4.7-27.59,13.2-33.18l20.08-13.23c1.72-1.13,4.04-1.1,5.7-.17l39.08,22.03-17.67,27.94c-1.28,2.02.13,3.69,1.26,4.56,5.15,3.94,7.54-5.94,10.89-8.89l19.04,30.44c7.43,11.88,17.33.75,22.02,1.74,1.54.33,2.95,1.71,3.79,3.54l13.36,29.26c-17.9,8.74-12.56,22.86-10.69,38.84,1.51,6.44.71,12.57-1.6,18.89-3.49,9.52-7,18.43-9.38,28.28-13.64,1.53-26.29,5.4-38.62,11.37l-38.94,18.87c-2.55-6.6-3.56-13.23-5.41-20.06-.65-2.39-2.13-4.1-4.39-3.72-2.49.42-3.85,2.55-3.18,5.04l5.54,20.88-31.44,2.01c-9.85.63-19.06,1.79-28.71,4.77-.27-9.34,3.97-23.48-7.4-26.31-23.68-5.89-16.46-2.43-37.19,3.88-4.35,1.33-5.62,6.89-6.24,10.67-2.16,13.11,11.42,9.22,5.36,19.11-12.89-2.24-25.85-4.38-38.4-7.36-5.71-1.36-10.8-4.29-14.86-8.98Z" fill="#3d9095"/>
          <g>
            <path d="M291.32,280.65c-7.16.77-13.64-3.18-16.27-9.16-2.91-6.63-.84-13.88,4.29-18.16,5.69-4.75,13.48-5.25,19.6-.5,5.34,4.14,7.62,10.64,5.56,17.13-1.71,5.37-6.71,10-13.17,10.69Z" fill="#fefefd"/>
            <path d="M287.56,258.52c3.97-1.04,7.56,1.2,8.67,4.73s-1.13,7.59-5.17,8.61c-3.28.83-6.9-.99-8.26-4.44s.57-7.81,4.77-8.91Z" fill="#3a9195"/>
          </g>
          <g>
            <path d="M164.07,279.29c-5.84-2.79-9.05-8.36-9.03-14.11.03-6.08,3.64-11.42,9.63-14.19,6.63-3.07,14.44-.64,18.49,4.57,4.62,5.95,4.44,13.71.08,19.16-4.54,5.68-11.97,8-19.16,4.56Z" fill="#fdfefd"/>
            <path d="M169.1,258.42c4-.95,7.72,1.37,8.59,4.78,1.01,3.96-1.4,7.77-5.15,8.7s-7.23-1.15-8.37-4.22c-1.51-4.05.73-8.27,4.93-9.26Z" fill="#388d93"/>
          </g>
          <g>
            <path d="M268.62,263.29l-76.67.33c-1.53-11.06-10.09-19.18-20.9-19.14-10.71.04-19.54,7.88-21.28,19.09-9.42.24-18.17-.65-27.28-1.01-1.57-.06-3.18-.77-4.01-1.64-1.59-1.64-1.64-7.13-.08-8.67,1.02-1.02,2.72-1.15,4.78-1.49l.34-55.78,5.49-1.35c.71-.17.41-2.72-.19-3.1-1.22-.75-3.29-.74-5.21-1.14-.17-5.03-.58-10.12.53-15.05,1.4-6.21,6.45-9.54,12.57-9.48l16.66.17,64.27-.16c.49-2.83.04-5.27.24-7.95.22-3.13,2.63-4.65,5.62-4.67l51.39-.19c20.04-.07,36.68,14.46,40.24,34.22-.05,1.74.53,5.92-1.79,5.93l-62.67.2.04,64.62c0,1.19,3.68.81,4.44.38l.15-57.45c0-.94.19-1.6.54-2.08.38-.53,1.25-.87,2.34-.87l29.31-.15c2.67-.01,4.57,1.28,5.85,3.34l13.62,21.87c6.53,2.44,21.43,1.99,21.78,12.82l.52,16.14c2.11,1.29,4.58,2.79,3.59,6.29-.41,1.45.08,3.38-1.03,4.51-1.21,1.23-2.95,1.95-5.01,1.84-5.65-.29-10.93.35-16.41-.39-1.44-10.53-10.01-18.61-20.14-18.85s-20.02,7.02-21.65,18.87Z" fill="#fefffe"/>
            <path d="M189.13,215.26l-44.88-.07c-1.91,0-3.69-2.19-3.69-4.06l.03-20.27c0-2.56,1.86-4.44,4.44-4.44l42.95.03c2.4,0,5.2.96,5.21,3.63l.1,20.41c0,2.06-1.35,4.77-4.16,4.77Z" fill="#3c8f95"/>
            <path d="M282.54,178.38l-34.93.37c-1.54.02-2.48-1.72-2.49-2.94l-.1-9.87c-.02-1.57.86-2.88,2.59-2.87l24.9.21c9.01.07,14.31,15.05,10.03,15.1Z" fill="#3c9296"/>
            <path d="M283.96,222.5c-6.85.85-13.05.16-19.79.38-1,.03-2.77-.51-2.79-1.84-.09-5.95-.28-11.56.34-17.41h21.03s1.2,18.87,1.2,18.87Z" fill="#3b8e94"/>
            <path d="M300.41,222.41c-4.31.81-7.95.54-12.11.19-1.36-6.15-2.52-12.31-1.51-18.44.27-1.61,3.21.21,3.74,1.13l9.89,17.13Z" fill="#3c8d92"/>
            <g>
              <path d="M236.7,258.28l-30.52.17.18-67.53c.56-4.36,3.66-7.74,8.05-7.96,9.79-.49,21.34-2.48,22.37,8l-.08,67.33Z" fill="#3b8f94"/>
              <path d="M211.39,216.27c1.52-.9,3.09-.09,3.86,1.21.63,1.07.26,2.81-1.12,3.66-1.11.68-2.53.28-3.29-.59-1.12-1.28-1.26-3.21.56-4.28Z" fill="#fdfdfc"/>
            </g>
          </g>
        </g>
      </g>
    </g>
  </g>
</svg>
